ply
format ascii 1.0
comment VCGLIB generated
element vertex 75
property float x
property float y
property float z
property float texture_u
property float texture_v
element face 50
property list uchar int vertex_indices
end_header
-0.1875 -0.1875 -0.375 0.888889 0.000000
-0.375 -0.1875 -0.975 0.796296 0.285714
-0.375 -0.1875 -0.375 0.796296 0.000000
-0.375 0.375 -0.3 0.370370 0.357143
0.375 -0.375 -0.3 0.000000 0.000000
0.375 0.375 -0.3 0.370370 0.000000
0.375 -0.375 -0.3 0.000000 0.357143
0.375 0.375 -0.375 0.037037 0.714286
0.375 0.375 -0.3 0.000000 0.714286
-0.375 -0.375 -0.375 0.370370 0.357143
-0.1875 -0.375 -0.375 0.370370 0.446429
0.1875 -0.375 -0.375 0.370370 0.625000
0.375 -0.375 -0.375 0.370370 0.714286
-0.375 -0.375 -0.3 0.333333 0.357143
-0.375 0.375 -0.375 0.962963 0.714286
-0.375 0.1875 -0.375 0.962963 0.625000
-0.375 -0.1875 -0.375 0.962963 0.446429
-0.375 -0.375 -0.375 0.962963 0.357143
-0.375 0.375 -0.3 1.000000 0.714286
0.375 -0.375 -0.375 0.037037 0.357143
0.375 -0.1875 -0.975 0.333333 0.446429
0.375 -0.1875 -0.375 0.037037 0.446429
0.1875 0.375 -0.375 0.277778 1.000000
0.1875 0.1875 -0.975 0.370370 0.714286
0.1875 0.1875 -0.375 0.370370 1.000000
-0.1875 0.1875 -0.375 0.092593 1.000000
-0.1875 0.375 -0.975 0.185185 0.714286
-0.1875 0.375 -0.375 0.185185 1.000000
0.375 0.375 -0.3 0.703704 0.357143
-0.375 0.375 -0.375 0.666667 0.000000
-0.375 0.375 -0.3 0.703704 0.000000
-0.375 -0.375 -0.975 0.666667 0.357143
-0.1875 -0.375 -0.975 0.666667 0.446429
-0.1875 -0.375 -0.375 0.796296 0.000000
-0.1875 -0.1875 -0.975 0.703704 0.285714
-0.1875 -0.1875 -0.375 0.703704 0.000000
-0.1875 -0.1875 -0.975 0.888889 0.285714
-0.375 0.1875 -0.375 0.462963 0.714286
-0.1875 0.1875 -0.975 0.370370 1.000000
-0.1875 0.1875 -0.375 0.370370 0.714286
-0.375 0.1875 -0.975 0.666667 0.625000
-0.1875 0.375 -0.375 0.666667 0.089286
-0.375 0.375 -0.975 0.370370 0.000000
-0.375 -0.375 -0.3 0.000000 0.357143
0.375 0.375 -0.375 0.666667 0.357143
0.1875 0.375 -0.975 0.370370 0.267857
0.1875 0.375 -0.375 0.666667 0.267857
0.1875 0.1875 -0.375 0.277778 0.714286
0.375 0.1875 -0.975 0.185185 1.000000
0.375 0.1875 -0.375 0.185185 0.714286
0.375 0.1875 -0.375 0.037037 0.625000
0.375 0.375 -0.975 0.333333 0.714286
-0.375 -0.375 -0.3 1.000000 0.357143
0.375 -0.1875 -0.375 0.092593 0.714286
0.1875 -0.1875 -0.975 0.000000 1.000000
0.1875 -0.1875 -0.375 0.000000 0.714286
0.375 -0.375 -0.975 0.666667 0.714286
0.1875 -0.1875 -0.375 0.981482 0.000000
0.1875 -0.375 -0.975 0.888889 0.285714
0.1875 -0.375 -0.375 0.888889 0.000000
0.375 -0.375 -0.3 0.333333 0.714286
0.375 -0.375 -0.975 0.333333 0.357143
0.1875 0.375 -0.975 0.277778 0.714286
-0.1875 0.1875 -0.975 0.092593 0.714286
-0.375 -0.1875 -0.975 0.666667 0.446429
-0.1875 -0.375 -0.975 0.796296 0.285714
-0.375 0.1875 -0.975 0.462963 1.000000
-0.375 0.375 -0.975 0.666667 0.714286
-0.1875 0.375 -0.975 0.370370 0.089286
0.375 0.375 -0.975 0.370370 0.357143
0.1875 0.1875 -0.975 0.277778 1.000000
0.375 0.1875 -0.975 0.333333 0.625000
0.375 -0.1875 -0.975 0.092593 1.000000
0.1875 -0.375 -0.975 0.666667 0.625000
0.1875 -0.1875 -0.975 0.981482 0.285714
3 0 1 2 
3 3 4 5 
3 6 7 8 
3 9 10 11 
3 11 12 13 
3 11 13 9 
3 14 15 16 
3 16 17 18 
3 16 18 14 
3 19 20 21 
3 22 23 24 
3 25 26 27 
3 28 29 30 
3 16 31 17 
3 9 32 10 
3 33 34 35 
3 0 36 1 
3 37 38 39 
3 14 40 15 
3 41 42 29 
3 3 43 4 
3 44 45 46 
3 47 48 49 
3 50 51 7 
3 18 17 52 
3 53 54 55 
3 11 56 12 
3 57 58 59 
3 21 50 7 
3 6 19 21 
3 7 6 21 
3 13 12 60 
3 46 41 29 
3 28 44 46 
3 29 28 46 
3 19 61 20 
3 22 62 23 
3 25 63 26 
3 16 64 31 
3 9 31 32 
3 33 65 34 
3 37 66 38 
3 14 67 40 
3 41 68 42 
3 44 69 45 
3 47 70 48 
3 50 71 51 
3 53 72 54 
3 11 73 56 
3 57 74 58 
