ply
format ascii 1.0
comment Created by Blender 2.79 (sub 0) - www.blender.org, source file: 'table.blend'
element vertex 40
property float x
property float y
property float z
element face 50
property list uchar uint vertex_indices
end_header
3.250000 1.749999 0.750000
0.250000 0.250000 0.750000
3.250000 0.249999 0.750000
3.250000 0.250000 0.600000
3.250000 1.750000 0.600000
0.250000 0.250000 0.600000
0.250000 1.750000 0.750000
0.250000 1.750000 0.600000
0.625000 1.562500 0.600000
0.625000 1.562500 -0.000000
0.437500 1.562500 -0.000000
0.619145 0.443355 0.600000
0.619145 0.443355 -0.000000
0.619145 0.619145 -0.000000
0.443355 0.443355 -0.000000
0.437500 1.562500 0.600000
0.437500 1.375000 -0.000000
0.619145 0.619145 0.600000
0.443355 0.619145 -0.000000
0.443355 0.443355 0.600000
0.437500 1.375000 0.600000
0.625000 1.375000 -0.000000
3.062500 1.562500 0.600000
3.062500 1.562500 -0.000000
2.875000 1.562500 -0.000000
2.875000 0.625000 0.600000
2.875000 0.625000 -0.000000
2.875000 0.437500 -0.000000
3.062500 0.437500 0.600000
3.062500 0.437500 -0.000000
3.062500 0.625000 -0.000000
3.062500 0.625000 0.600000
2.875000 1.562500 0.600000
2.875000 1.375000 -0.000000
2.875000 1.375000 0.600000
2.875000 0.437500 0.600000
0.625000 1.375000 0.600000
3.062500 1.375000 0.600000
3.062500 1.375000 -0.000000
0.443355 0.619145 0.600000
3 0 1 2
3 0 3 4
3 5 3 2
3 6 5 1
3 6 7 5
3 8 9 10
3 11 12 13
3 13 12 14
3 15 10 16
3 17 13 18
3 19 14 12
3 20 16 21
3 22 23 24
3 5 2 1
3 25 26 27
3 28 29 30
3 31 30 26
3 32 33 34
3 35 27 29
3 0 6 1
3 31 26 25
3 21 16 10
3 36 21 9
3 4 7 6
3 4 6 0
3 37 38 23
3 34 33 38
3 30 29 27
3 0 2 3
3 19 12 11
3 23 38 33
3 8 10 15
3 13 14 18
3 11 13 17
3 17 18 39
3 39 14 19
3 21 10 9
3 36 9 8
3 20 21 36
3 15 16 20
3 39 18 14
3 32 24 33
3 23 33 24
3 22 24 32
3 37 23 22
3 34 38 37
3 30 27 26
3 25 27 35
3 35 29 28
3 28 30 31
