ply
format ascii 1.0
comment VCGLIB generated
element vertex 49
property float x
property float y
property float z
element face 94
property list uchar int vertex_indices
end_header
1.5 1 0.8 
2.5 1 0.8 
2.5 0.75 0.8 
3 0.999999 1 
-1 -1 1 
2.999999 -1.000001 1 
3 -1.000001 0.8 
3 0.999999 0.8 
-0.75 -1 0.8 
2.75 -1 0.8 
-1 0.75 0.8 
-1 0.5 0.8 
-1 1 1 
-1 1 0.8 
1.5 0.5 0.8 
-0.5 0.75 0.8 
1.5 -0.75 0.8 
-0.507807 -0.742193 0.8 
2.5 -0.75 0.8 
2.75 0.749999 0.8 
-0.75 0.5 0.8 
-0.75 0.75 0.8 
1.5 -0.5 0.8 
-0.507807 -0.507806 0.8 
-0.5 0.75 -0 
-0.75 0.75 -0 
2.75 0.499999 0.8 
-0.507807 -0.742193 -0 
-0.507807 -0.507806 -0 
-0.5 0.5 0.8 
-0.742193 -0.507806 0.8 
-0.742193 -0.742193 0.8 
-1 -1 0.8 
-0.742193 -0.742193 -0 
-0.75 0.5 -0 
-0.742193 -0.507806 -0 
-0.5 0.5 -0 
2.75 0.749999 -0 
2.5 0.75 -0 
2.5 -0.5 0.8 
2.5 -0.5 -0 
2.5 -0.75 -0 
2.75 -0.750001 0.8 
2.75 -0.750001 -0 
2.75 -0.500001 -0 
2.75 -0.500001 0.8 
2.5 0.5 0.8 
2.5 0.5 -0 
2.75 0.499999 -0 
3 0 1 2 
3 3 4 5 
3 3 6 7 
3 8 9 5 
3 10 11 12 
3 0 13 12 
3 0 14 15 
3 0 3 1 
3 16 8 17 
3 16 18 9 
3 19 2 1 
3 20 10 21 
3 22 16 23 
3 15 24 25 
3 26 19 7 
3 17 27 28 
3 15 21 13 
3 20 29 30 
3 30 31 32 
3 3 7 1 
3 28 27 33 
3 21 25 34 
3 23 28 35 
3 13 0 15 
3 11 20 30 
3 31 8 32 
3 31 33 27 
3 20 34 36 
3 19 37 38 
3 5 4 8 
3 16 17 23 
3 23 30 29 
3 19 1 7 
3 39 40 41 
3 42 43 44 
3 16 39 18 
3 45 44 40 
3 46 26 45 
3 20 11 10 
3 2 47 46 
3 18 41 43 
3 3 12 4 
3 9 8 16 
3 45 40 39 
3 8 31 17 
3 7 6 45 
3 36 34 25 
3 29 36 24 
3 4 32 8 
3 11 32 4 
3 18 42 9 
3 4 12 11 
3 16 22 39 
3 29 15 14 
3 39 22 14 
3 39 46 45 
3 22 23 29 
3 11 30 32 
3 14 0 2 
3 12 3 0 
3 12 13 10 
3 29 14 22 
3 26 48 37 
3 46 47 48 
3 44 43 41 
3 3 5 6 
3 26 7 45 
3 31 27 17 
3 37 48 47 
3 21 10 13 
3 6 9 42 
3 9 6 5 
3 15 25 21 
3 6 42 45 
3 2 46 14 
3 28 33 35 
3 17 28 23 
3 23 35 30 
3 30 33 31 
3 36 25 24 
3 29 24 15 
3 20 36 29 
3 21 34 20 
3 30 35 33 
3 2 38 47 
3 14 46 39 
3 37 47 38 
3 19 38 2 
3 26 37 19 
3 46 48 26 
3 44 41 40 
3 39 41 18 
3 18 43 42 
3 42 44 45 
