ply
format ascii 1.0
comment VCGLIB generated
element vertex 126
property float x
property float y
property float z
property float texture_u
property float texture_v
element face 42
property list uchar int vertex_indices
end_header
4 1.999999 1 0.996874 0.502180
-0 0 1 0.000510 0.000510
3.999999 -1e-06 1 0.998010 0.002971
4 1.999999 1 0.999301 0.566613
4 -1e-06 0.8 0.500256 0.620550
4 1.999999 0.8 0.997992 0.620181
-0 0 0.8 0.267112 0.510249
4 -1e-06 0.8 0.997620 0.510249
3.999999 -1e-06 1 0.997619 0.546774
0 2 1 0.997544 0.678831
-0 0 0.8 0.499274 0.627675
-0 0 1 0.499808 0.678142
0 2 1 0.997519 0.569667
0 2 0.8 0.997265 0.619917
-0 0 0.8 0.503076 0.619022
0.5 1.75 0.8 0.599715 0.998122
0.5 1.75 -0 0.600571 0.799101
0.25 1.75 -0 0.658309 0.798667
0.492193 0.257807 0.8 0.866163 0.997826
0.492193 0.257807 -0 0.865687 0.800406
0.492193 0.492194 -0 0.924607 0.800675
0.25 1.75 0.8 0.466568 0.997736
0.25 1.75 -0 0.467911 0.800669
0.25 1.5 -0 0.525024 0.799970
0.492193 0.492194 0.8 0.734172 0.997203
0.492193 0.492194 -0 0.734949 0.799639
0.257807 0.492194 -0 0.790754 0.799230
0.257807 0.257807 0.8 0.931250 0.998753
0.257807 0.257807 -0 0.930943 0.798243
0.492193 0.257807 -0 0.990332 0.798415
0.25 1.5 0.8 0.798709 0.998684
0.25 1.5 -0 0.799552 0.798111
0.5 1.5 -0 0.857512 0.799341
3.75 1.75 0.8 0.666892 0.999635
3.75 1.75 -0 0.668236 0.800614
3.5 1.75 -0 0.723533 0.799691
-0 0 0.8 0.002971 0.524514
3.999999 -1e-06 1 0.733478 0.561039
-0 0 1 0.002971 0.561039
3.5 0.5 0.8 0.599668 0.999148
3.5 0.5 -0 0.600384 0.799408
3.5 0.25 -0 0.658727 0.799939
3.75 0.249999 0.8 0.798896 0.997636
3.75 0.249999 -0 0.801048 0.800053
3.75 0.499999 -0 0.856253 0.799612
3.75 0.499999 0.8 0.666743 0.998589
3.75 0.499999 -0 0.666570 0.799455
3.5 0.5 -0 0.724875 0.799789
3.5 1.75 0.8 0.811311 0.999541
3.5 1.5 -0 0.856968 0.853440
3.5 1.5 0.8 0.856968 0.999541
3.5 0.25 0.8 0.802630 0.944962
3.5 0.25 -0 0.802630 0.798861
3.75 0.249999 -0 0.848287 0.798861
4 1.999999 1 0.996874 0.501831
0 2 1 0.002060 0.502606
-0 0 1 0.002060 0.002487
3.75 0.499999 0.8 0.812443 0.998471
3.5 0.5 -0 0.858100 0.852370
3.5 0.5 0.8 0.858100 0.998471
0.5 1.5 0.8 0.799173 0.998026
0.5 1.5 -0 0.799775 0.800056
0.5 1.75 -0 0.857692 0.799614
4 1.999999 0.8 0.998129 0.736279
0 2 0.8 0.001735 0.736820
0 2 1 0.002835 0.686150
4 1.999999 0.8 0.998013 0.685272
0 2 1 0.001740 0.736720
4 1.999999 1 0.997398 0.737335
3.75 1.5 0.8 0.600271 0.998465
3.75 1.5 -0 0.601614 0.798468
3.75 1.75 -0 0.657888 0.800474
3.5 1.5 0.8 0.734421 0.945590
3.5 1.5 -0 0.734421 0.799489
3.75 1.5 -0 0.780078 0.799489
4 1.999999 1 0.998286 0.568357
3.999999 -1e-06 1 0.498834 0.568555
4 -1e-06 0.8 0.498330 0.619674
0.257807 0.257807 0.8 0.814595 0.997982
0.492193 0.257807 -0 0.857400 0.851881
0.492193 0.257807 0.8 0.857400 0.997982
0.5 1.75 0.8 0.746235 0.998110
0.25 1.75 -0 0.791892 0.852009
0.25 1.75 0.8 0.791892 0.998110
0.492193 0.257807 0.8 0.864983 0.999073
0.492193 0.492194 -0 0.924062 0.799496
0.492193 0.492194 0.8 0.924450 0.997916
0.492193 0.492194 0.8 0.931847 0.998921
0.257807 0.492194 -0 0.990647 0.798990
0.257807 0.492194 0.8 0.990647 0.998613
0.257807 0.492194 0.8 0.813291 0.997736
0.257807 0.257807 -0 0.856097 0.851635
0.257807 0.257807 0.8 0.856097 0.997736
0.5 1.5 0.8 0.798755 0.998482
0.5 1.75 -0 0.859138 0.798899
0.5 1.75 0.8 0.858363 0.998482
0.25 1.5 0.8 0.545639 0.997669
0.5 1.5 -0 0.591296 0.851568
0.5 1.5 0.8 0.591296 0.997669
0.25 1.75 0.8 0.745061 0.998768
0.25 1.5 -0 0.790717 0.852667
0.25 1.5 0.8 0.790717 0.998768
0.257807 0.492194 0.8 0.600196 0.996684
0.257807 0.492194 -0 0.601109 0.799837
0.257807 0.257807 -0 0.657813 0.800497
3.5 1.75 0.8 0.733470 0.998822
3.5 1.75 -0 0.734801 0.800928
3.5 1.5 -0 0.790683 0.800229
3.75 1.75 0.8 0.811269 0.998768
3.5 1.75 -0 0.856925 0.852667
3.5 1.75 0.8 0.856925 0.998768
3.75 1.5 0.8 0.745444 0.997521
3.75 1.75 -0 0.791100 0.851420
3.75 1.75 0.8 0.791100 0.997521
3.5 1.5 0.8 0.812542 0.996991
3.75 1.5 -0 0.858198 0.850889
3.75 1.5 0.8 0.858198 0.996990
3.5 0.5 0.8 0.877675 0.997452
3.5 0.25 -0 0.923331 0.851351
3.5 0.25 0.8 0.923331 0.997452
3.5 0.25 0.8 0.813652 0.997669
3.75 0.249999 -0 0.859309 0.851568
3.75 0.249999 0.8 0.859309 0.997669
3.75 0.249999 0.8 0.811156 0.998002
3.75 0.499999 -0 0.856813 0.851901
3.75 0.499999 0.8 0.856813 0.998002
3 0 1 2 
3 3 4 5 
3 6 7 8 
3 9 10 11 
3 12 13 14 
3 15 16 17 
3 18 19 20 
3 21 22 23 
3 24 25 26 
3 27 28 29 
3 30 31 32 
3 33 34 35 
3 36 37 38 
3 39 40 41 
3 42 43 44 
3 45 46 47 
3 48 49 50 
3 51 52 53 
3 54 55 56 
3 57 58 59 
3 60 61 62 
3 63 64 65 
3 66 67 68 
3 69 70 71 
3 72 73 74 
3 75 76 77 
3 78 79 80 
3 81 82 83 
3 84 85 86 
3 87 88 89 
3 90 91 92 
3 93 94 95 
3 96 97 98 
3 99 100 101 
3 102 103 104 
3 105 106 107 
3 108 109 110 
3 111 112 113 
3 114 115 116 
3 117 118 119 
3 120 121 122 
3 123 124 125 
