ply
format ascii 1.0
comment Created by Blender 2.79 (sub 0) - www.blender.org, source file: 'table_2x1.blend'
element vertex 171
property float x
property float y
property float z
property float nx
property float ny
property float nz
property float s
property float t
element face 78
property list uchar uint vertex_indices
end_header
2.196597 -0.243576 1.003415 0.000001 -0.000000 1.000000 0.217395 0.462463
-0.203402 1.256424 1.003416 0.000001 -0.000000 1.000000 0.996631 0.000418
-0.203403 -0.243576 1.003416 0.000001 -0.000000 1.000000 0.997993 0.460149
2.196597 1.246424 0.903414 0.000000 0.995038 -0.099498 0.999293 0.898564
-0.203402 1.256424 1.003416 0.000000 0.995038 -0.099498 0.218623 0.877038
2.196598 1.256423 1.003415 0.000000 0.995038 -0.099498 0.999222 0.874725
2.196597 -0.253576 0.903414 -0.000000 -0.995037 0.099501 0.218752 0.920383
-0.203403 -0.243576 1.003416 -0.000000 -0.995037 0.099501 0.999293 0.898564
-0.203403 -0.253576 0.903416 -0.000000 -0.995037 0.099501 0.999351 0.918068
2.196597 1.246424 0.903414 1.000000 0.000000 0.000002 0.996099 0.918078
2.196597 -0.243576 1.003415 1.000000 0.000000 0.000002 0.511568 0.950163
2.196597 -0.253576 0.903414 1.000000 0.000000 0.000002 0.508224 0.919524
-0.203403 1.246424 0.903416 -1.000000 0.000000 0.000007 0.508095 0.876180
-0.203403 -0.243576 1.003416 -1.000000 0.000000 0.000007 0.023383 0.846968
-0.203402 1.256424 1.003416 -1.000000 0.000000 0.000007 0.511257 0.845522
1.996597 0.590174 0.434665 1.000000 0.000000 -0.000000 0.845925 0.592774
1.996597 0.496424 0.340915 1.000000 0.000000 -0.000000 0.815347 0.564131
1.996597 0.833924 0.003415 1.000000 0.000000 -0.000000 0.924812 0.460366
1.996597 0.402674 0.434665 1.000000 0.000000 0.000000 0.784940 0.592954
1.996597 0.496424 0.528415 1.000000 0.000000 0.000000 0.815518 0.621597
1.996597 0.871424 0.903415 1.000000 -0.000000 0.000000 0.937827 0.736169
1.996597 0.158924 0.003415 -1.000000 -0.000000 0.000000 0.844322 0.989812
1.996597 0.402674 0.434665 -1.000000 -0.000000 0.000000 0.999442 0.948717
1.996597 0.496424 0.340915 -1.000000 -0.000000 0.000000 0.999562 0.989352
1.996597 -0.066076 0.903415 0.000000 0.707107 0.707107 0.063798 0.079806
1.746597 0.402674 0.434665 0.000000 0.707107 0.707107 0.216486 0.155976
1.746597 -0.066076 0.903415 0.000000 0.707107 0.707107 0.064025 0.156428
1.746597 -0.028576 0.003415 0.000000 0.707107 -0.707107 0.068728 0.769394
1.996597 0.402674 0.434665 0.000000 0.707107 -0.707107 0.267318 0.845428
1.996597 -0.028576 0.003415 0.000000 0.707107 -0.707107 0.068955 0.846016
1.746597 0.402674 0.434665 1.000000 0.000000 -0.000000 0.602716 0.949893
1.746597 0.158924 0.003415 1.000000 0.000000 -0.000000 0.758077 0.990068
1.746597 0.496424 0.340915 1.000000 0.000000 -0.000000 0.602836 0.990528
1.746597 0.121424 0.903415 1.000000 0.000000 0.000000 0.173818 0.309347
1.746597 0.402674 0.434665 1.000000 0.000000 0.000000 0.001449 0.350494
1.746597 0.496424 0.528415 1.000000 0.000000 0.000000 0.001328 0.309859
1.746597 0.158924 0.003415 0.000000 -0.707107 0.707107 0.266409 0.538940
1.996597 0.496424 0.340915 0.000000 -0.707107 0.707107 0.156865 0.615888
1.746597 0.496424 0.340915 0.000000 -0.707107 0.707107 0.156637 0.539266
1.746597 0.496424 0.340915 -0.000000 0.707107 0.707107 0.156637 0.539266
1.996597 0.833924 0.003415 -0.000000 0.707107 0.707107 0.047093 0.616213
1.746597 0.833924 0.003415 -0.000000 0.707107 0.707107 0.046866 0.539591
1.746597 0.590174 0.434665 1.000000 0.000000 0.000000 0.218744 0.917673
1.746597 0.833924 0.003415 1.000000 0.000000 0.000000 0.063624 0.958768
1.746597 1.021424 0.003415 1.000000 0.000000 0.000000 0.020381 0.918261
1.746597 0.590174 0.434665 1.000000 -0.000000 0.000000 0.001569 0.391129
1.746597 0.871424 0.903415 1.000000 -0.000000 0.000000 0.174179 0.431252
1.746597 0.496424 0.528415 1.000000 -0.000000 0.000000 0.001690 0.431763
1.996597 1.021424 0.003415 0.000000 -0.707107 -0.707107 0.465590 0.814191
1.746597 0.590174 0.434665 0.000000 -0.707107 -0.707107 0.267000 0.738157
1.746597 1.021424 0.003415 0.000000 -0.707107 -0.707107 0.465363 0.737569
1.996597 0.590174 0.434665 0.000000 -0.707107 0.707107 0.064025 0.156428
1.746597 1.058924 0.903415 0.000000 -0.707107 0.707107 0.216713 0.232598
1.746597 0.590174 0.434665 0.000000 -0.707107 0.707107 0.064252 0.233050
-0.003403 0.496424 0.340915 -0.000000 0.707107 0.707107 0.156637 0.539266
0.246597 0.833924 0.003415 -0.000000 0.707107 0.707107 0.266182 0.462319
-0.003403 0.833924 0.003415 -0.000000 0.707107 0.707107 0.266409 0.538940
0.246597 0.496424 0.340915 0.000000 -0.707107 0.707107 0.156410 0.462644
-0.003403 0.158924 0.003415 0.000000 -0.707107 0.707107 0.046866 0.539591
0.246597 0.158924 0.003415 0.000000 -0.707107 0.707107 0.046638 0.462969
-0.003403 0.402674 0.434665 1.000000 -0.000002 0.000002 0.480053 0.605352
-0.003403 0.590174 0.434665 1.000000 -0.000002 0.000002 0.419069 0.605533
-0.003403 0.496424 0.528415 1.000000 -0.000002 0.000002 0.449476 0.576709
-0.003403 0.590174 0.434665 1.000000 -0.000000 -0.000001 0.419069 0.605533
-0.003403 0.833924 0.003415 1.000000 -0.000000 -0.000001 0.340181 0.737940
-0.003403 1.021424 0.003415 1.000000 -0.000000 -0.000001 0.279197 0.738121
-0.003403 0.158924 0.003415 1.000000 0.000000 0.000001 0.559724 0.737289
-0.003403 0.402674 0.434665 1.000000 0.000000 0.000001 0.480053 0.605352
-0.003403 -0.028576 0.003415 1.000000 0.000000 0.000001 0.620709 0.737109
-0.003403 0.871424 0.903415 1.000000 0.000000 -0.000000 0.327166 0.462138
-0.003403 0.590174 0.434665 1.000000 0.000000 -0.000000 0.419069 0.605533
-0.003403 1.058924 0.903415 1.000000 0.000000 -0.000000 0.266182 0.462319
0.246597 0.496424 0.528415 -0.000000 -0.707107 -0.707107 0.999102 0.834089
1.746597 0.590174 0.434665 -0.000000 -0.707107 -0.707107 0.511348 0.876170
1.746597 0.496424 0.528415 -0.000000 -0.707107 -0.707107 0.511228 0.835536
1.746597 0.496424 0.528415 0.000000 0.707107 -0.707107 0.998982 0.793454
0.246597 0.402674 0.434665 0.000000 0.707107 -0.707107 0.511228 0.835536
0.246597 0.496424 0.528415 0.000000 0.707107 -0.707107 0.511107 0.794901
1.746597 0.496424 0.340915 -0.000000 -0.707107 0.707107 0.511022 0.766167
0.246597 0.590174 0.434665 -0.000000 -0.707107 0.707107 0.998811 0.735988
0.246597 0.496424 0.340915 -0.000000 -0.707107 0.707107 0.998896 0.764721
0.246597 0.496424 0.340915 0.000000 0.707107 0.707107 0.998896 0.764721
1.746597 0.402674 0.434665 0.000000 0.707107 0.707107 0.511107 0.794901
1.746597 0.496424 0.340915 0.000000 0.707107 0.707107 0.511022 0.766167
-0.003403 0.590174 0.434665 -0.000000 -0.707107 -0.707107 0.068500 0.692773
0.246597 1.021424 0.003415 -0.000000 -0.707107 -0.707107 0.267091 0.768806
0.246597 0.590174 0.434665 -0.000000 -0.707107 -0.707107 0.068727 0.769394
-0.003403 1.058924 0.903415 0.000000 -0.707107 0.707107 0.064252 0.233050
0.246597 0.590174 0.434665 0.000000 -0.707107 0.707107 0.216940 0.309219
0.246597 1.058924 0.903415 0.000000 -0.707107 0.707107 0.064480 0.309671
-0.003403 0.121424 0.903415 1.000000 0.000000 0.000000 0.571103 0.461415
-0.003403 0.402674 0.434665 1.000000 0.000000 0.000000 0.480053 0.605352
-0.003403 0.496424 0.528415 1.000000 0.000000 0.000000 0.449476 0.576709
-0.003403 0.402674 0.434665 0.000000 0.707107 0.707107 0.063571 0.003184
0.246597 -0.066076 0.903415 0.000000 0.707107 0.707107 0.216259 0.079354
0.246597 0.402674 0.434665 0.000000 0.707107 0.707107 0.063798 0.079806
-0.003403 -0.028576 0.003415 0.000000 0.707107 -0.707107 0.068273 0.616151
0.246597 0.402674 0.434665 0.000000 0.707107 -0.707107 0.266863 0.692184
0.246597 -0.028576 0.003415 0.000000 0.707107 -0.707107 0.068500 0.692772
0.246597 0.590174 0.434665 -1.000000 -0.000001 0.000001 0.218985 0.998943
0.246597 0.833924 0.003415 -1.000000 -0.000001 0.000001 0.063623 0.958768
0.246597 0.496424 0.340915 -1.000000 -0.000001 0.000001 0.218864 0.958308
0.246597 0.402674 0.434665 -1.000000 0.000000 0.000000 0.309982 0.960747
0.246597 0.158924 0.003415 -1.000000 0.000000 0.000000 0.465102 0.919652
0.246597 -0.028576 0.003415 -1.000000 0.000000 0.000000 0.508345 0.960159
0.246597 0.402674 0.434665 -1.000000 0.000001 -0.000001 0.003011 0.877677
0.246597 0.121424 0.903415 -1.000000 0.000001 -0.000001 0.175621 0.917801
0.246597 0.496424 0.528415 -1.000000 0.000001 -0.000001 0.003132 0.918312
0.246597 0.871424 0.903415 -1.000000 0.000000 0.000000 0.173938 0.349982
0.246597 0.590174 0.434665 -1.000000 0.000000 0.000000 0.001569 0.391128
0.246597 0.496424 0.528415 -1.000000 0.000000 0.000000 0.001449 0.350494
2.196598 1.256423 1.003415 0.000001 -0.000000 1.000000 0.216032 0.002732
2.196597 1.246424 0.903414 -0.000000 0.995037 -0.099509 0.999293 0.898564
-0.203403 1.246424 0.903416 -0.000000 0.995037 -0.099509 0.218694 0.900878
-0.203402 1.256424 1.003416 -0.000000 0.995037 -0.099509 0.218623 0.877038
2.196597 -0.253576 0.903414 -0.000000 -0.995037 0.099504 0.218752 0.920383
2.196597 -0.243576 1.003415 -0.000000 -0.995037 0.099504 0.218694 0.900878
-0.203403 -0.243576 1.003416 -0.000000 -0.995037 0.099504 0.999293 0.898564
2.196597 1.246424 0.903414 1.000000 -0.000000 -0.000005 0.996099 0.918078
2.196598 1.256423 1.003415 1.000000 -0.000000 -0.000005 0.999442 0.948717
2.196597 -0.243576 1.003415 1.000000 -0.000000 -0.000005 0.511568 0.950163
-0.203403 1.246424 0.903416 -1.000000 0.000000 0.000005 0.508095 0.876180
-0.203403 -0.253576 0.903416 -1.000000 0.000000 0.000005 0.020221 0.877626
-0.203403 -0.243576 1.003416 -1.000000 0.000000 0.000005 0.023383 0.846968
1.996597 1.021424 0.003415 1.000000 0.000000 0.000000 0.985797 0.460185
1.996597 -0.066076 0.903415 1.000000 0.000000 0.000000 0.632905 0.737073
1.996597 0.121424 0.903415 1.000000 0.000000 0.000000 0.693890 0.736892
1.996597 1.058924 0.903415 1.000000 -0.000000 0.000000 0.998811 0.735988
1.996597 -0.028576 0.003415 -1.000000 0.000000 -0.000000 0.801079 0.949305
1.996597 0.402674 0.434665 -0.000000 0.707107 0.707107 0.216259 0.079354
1.746597 0.402674 0.434665 0.000000 0.707107 -0.707107 0.267091 0.768806
1.746597 -0.028576 0.003415 1.000000 0.000000 -0.000000 0.801079 0.949305
1.746597 -0.066076 0.903415 1.000000 0.000000 -0.000000 0.217061 0.349854
1.996597 0.158924 0.003415 0.000000 -0.707107 0.707107 0.266636 0.615562
1.996597 0.496424 0.340915 -0.000000 0.707107 0.707107 0.156865 0.615888
1.746597 0.496424 0.340915 1.000000 0.000000 -0.000000 0.218864 0.958308
1.746597 1.058924 0.903415 1.000000 -0.000000 0.000000 0.217181 0.390489
1.996597 0.590174 0.434665 -0.000000 -0.707107 -0.707107 0.267227 0.814779
1.996597 1.058924 0.903415 0.000000 -0.707107 0.707107 0.216486 0.155976
0.246597 0.496424 0.340915 0.000000 0.707107 0.707107 0.156410 0.462644
-0.003403 0.496424 0.340915 -0.000000 -0.707107 0.707107 0.156637 0.539266
-0.003403 0.402674 0.434665 1.000000 -0.000002 0.000003 0.480053 0.605352
-0.003403 0.496424 0.340915 1.000000 -0.000002 0.000003 0.449646 0.634175
-0.003403 0.590174 0.434665 1.000000 -0.000002 0.000003 0.419069 0.605533
-0.003403 0.590174 0.434665 1.000000 0.000001 -0.000000 0.419069 0.605533
-0.003403 0.496424 0.340915 1.000000 0.000001 -0.000000 0.449646 0.634175
-0.003403 0.833924 0.003415 1.000000 0.000001 -0.000000 0.340181 0.737940
-0.003403 0.158924 0.003415 1.000000 -0.000002 0.000002 0.559724 0.737289
-0.003403 0.496424 0.340915 1.000000 -0.000002 0.000002 0.449646 0.634175
-0.003403 0.871424 0.903415 1.000000 -0.000002 0.000001 0.327166 0.462138
-0.003403 0.496424 0.528415 1.000000 -0.000002 0.000001 0.449476 0.576709
-0.003403 0.590174 0.434665 1.000000 -0.000002 0.000001 0.419069 0.605533
0.246597 0.590174 0.434665 -0.000000 -0.707107 -0.707107 0.999222 0.874724
1.746597 0.496424 0.528415 0.000000 0.707107 -0.707106 0.998982 0.793454
1.746597 0.402674 0.434665 0.000000 0.707107 -0.707106 0.999102 0.834089
0.246597 0.402674 0.434665 0.000000 0.707107 -0.707106 0.511228 0.835536
1.746597 0.590174 0.434665 -0.000000 -0.707107 0.707107 0.510937 0.737434
0.246597 0.402674 0.434665 0.000000 0.707107 0.707107 0.998982 0.793454
-0.003403 1.021424 0.003415 -0.000000 -0.707107 -0.707107 0.266863 0.692184
-0.003403 0.590174 0.434665 -0.000000 -0.707107 0.707107 0.216713 0.232598
-0.003403 -0.066076 0.903415 1.000000 0.000000 -0.000000 0.632088 0.461234
-0.003403 -0.066076 0.903415 0.000000 0.707107 0.707107 0.216032 0.002732
-0.003403 0.402674 0.434665 0.000000 0.707107 -0.707107 0.266636 0.615562
0.246597 0.590174 0.434665 -1.000000 0.000000 0.000001 0.218985 0.998943
0.246597 1.021424 0.003415 -1.000000 0.000000 0.000001 0.020622 0.999531
0.246597 0.833924 0.003415 -1.000000 0.000000 0.000001 0.063623 0.958768
0.246597 0.496424 0.340915 -1.000000 0.000000 0.000000 0.309861 0.920112
0.246597 0.402674 0.434665 -1.000000 -0.000000 -0.000001 0.003011 0.877677
0.246597 -0.066076 0.903415 -1.000000 -0.000000 -0.000001 0.218623 0.877038
0.246597 0.121424 0.903415 -1.000000 -0.000000 -0.000001 0.175621 0.917801
0.246597 1.058924 0.903415 -1.000000 0.000000 -0.000000 0.217181 0.390489
3 0 1 2
3 3 4 5
3 6 7 8
3 9 10 11
3 12 13 14
3 15 16 17
3 18 15 19
3 15 20 19
3 21 22 23
3 24 25 26
3 27 28 29
3 30 31 32
3 33 34 35
3 36 37 38
3 39 40 41
3 42 43 44
3 45 46 47
3 48 49 50
3 51 52 53
3 54 55 56
3 57 58 59
3 60 61 62
3 63 64 65
3 66 67 68
3 69 70 71
3 72 73 74
3 75 76 77
3 78 79 80
3 81 82 83
3 84 85 86
3 87 88 89
3 90 91 92
3 93 94 95
3 96 97 98
3 99 100 101
3 102 103 104
3 105 106 107
3 108 109 110
3 0 111 1
3 112 113 114
3 115 116 117
3 118 119 120
3 121 122 123
3 17 124 15
3 125 18 126
3 18 19 126
3 18 16 15
3 15 127 20
3 21 128 22
3 24 129 25
3 27 130 28
3 30 131 31
3 33 132 34
3 36 133 37
3 39 134 40
3 42 135 43
3 45 136 46
3 48 137 49
3 51 138 52
3 54 139 55
3 57 140 58
3 141 142 143
3 144 145 146
3 147 148 60
3 149 150 151
3 72 152 73
3 153 154 155
3 78 156 79
3 81 157 82
3 84 158 85
3 87 159 88
3 90 160 91
3 93 161 94
3 96 162 97
3 163 164 165
3 102 166 103
3 167 168 169
3 108 170 109
