ply
format ascii 1.0
comment Created by Blender 2.79 (sub 0) - www.blender.org, source file: 'wall_small.blend'
element vertex 36
property float x
property float y
property float z
property float nx
property float ny
property float nz
property float s
property float t
element face 18
property list uchar uint vertex_indices
end_header
-0.115910 0.000000 0.160697 -0.988909 0.000000 0.148524 0.264681 0.504009
-0.115910 1.000000 0.160697 -0.988909 0.000000 0.148524 0.264680 0.249913
-0.140045 1.000000 -0.000000 -0.988909 0.000000 0.148524 0.309843 0.249913
-0.090045 1.000000 0.160697 0.000000 -0.000000 1.000000 0.251959 0.248817
-0.115910 1.000000 0.160697 0.000000 -0.000000 1.000000 0.258697 0.248817
-0.115910 0.000000 0.160697 0.000000 -0.000000 1.000000 0.258699 0.509351
-0.090045 0.000000 0.160697 0.000000 -0.000000 1.000000 0.251960 0.509351
-0.090045 0.000000 0.413104 0.000001 -1.000000 0.000000 0.509906 0.222094
-0.090045 0.000000 0.160697 0.000001 -1.000000 0.000000 0.509906 0.362383
-0.000000 0.000000 0.413103 0.000001 -1.000000 0.000000 0.459858 0.222094
-0.090045 0.000000 0.000000 0.000000 -1.000000 0.000000 0.509908 0.451702
-0.115910 0.000000 0.160697 0.000000 -1.000000 0.000000 0.524283 0.362383
-0.140045 0.000000 -0.000000 0.000000 -1.000000 0.000000 0.537698 0.451702
-0.090045 1.000000 0.413104 -0.000010 -0.000000 1.000000 0.521866 0.143034
-0.090045 0.000000 0.413104 -0.000010 -0.000000 1.000000 0.521869 0.698846
0.000000 1.000000 0.413105 -0.000010 -0.000000 1.000000 0.471818 0.143034
-0.090045 1.000000 0.160697 -1.000000 0.000000 -0.000000 0.460929 -0.001712
-0.090045 0.000000 0.413104 -1.000000 0.000000 -0.000000 0.400391 0.249943
-0.090045 1.000000 0.413104 -1.000000 0.000000 -0.000000 0.402850 -0.001711
-0.140045 0.000000 -0.000000 -0.988909 0.000000 0.148524 0.309845 0.504009
-0.090045 0.000000 0.160697 -0.000000 -1.000000 -0.000000 0.509906 0.362383
-0.090045 1.000000 0.413104 0.000000 1.000000 -0.000000 0.478676 0.249998
0.000000 1.000000 0.413105 0.000000 1.000000 -0.000000 0.528725 0.249997
-0.090045 1.000000 0.160697 0.000000 1.000000 -0.000000 0.478678 0.390287
-0.090045 0.000000 0.000000 0.000001 -1.000000 0.000000 0.509908 0.451702
0.000000 0.000000 0.000000 0.000001 -1.000000 0.000000 0.459859 0.451702
-0.090045 1.000000 0.000000 0.000000 1.000000 0.000000 0.478678 0.479605
0.000000 1.000000 0.000000 0.000000 1.000000 0.000000 0.528726 0.479605
-0.090045 1.000000 0.160697 -0.000000 1.000000 -0.000000 0.520533 0.384087
-0.090045 1.000000 0.000000 -0.000000 1.000000 -0.000000 0.520533 0.473404
-0.115910 1.000000 0.160697 -0.000000 1.000000 -0.000000 0.506157 0.384087
0.000000 1.000000 0.413105 0.000009 -0.000002 1.000000 0.471818 0.143034
-0.090045 0.000000 0.413104 0.000009 -0.000002 1.000000 0.521869 0.698846
-0.000000 0.000000 0.413103 0.000009 -0.000002 1.000000 0.471821 0.698846
-0.090045 0.000000 0.160697 -1.000000 0.000000 -0.000000 0.458469 0.249943
-0.140045 1.000000 -0.000000 0.000000 1.000000 0.000000 0.492743 0.473405
3 0 1 2
3 3 4 5
3 6 3 5
3 7 8 9
3 10 11 12
3 13 14 15
3 16 17 18
3 2 19 0
3 11 10 20
3 21 22 23
3 8 24 25
3 8 25 9
3 26 23 27
3 23 22 27
3 28 29 30
3 31 32 33
3 17 16 34
3 35 30 29
